<svg xmlns="http://www.w3.org/2000/svg" style="display: none;">
  <!-- Minimize Icon -->
  <symbol id="minimize-icon" viewBox="0 0 24 24">
    <path fill="currentColor" d="M20 14H4v-4h16v4z"/>
  </symbol>
  
  <!-- Maximize Icon -->
  <symbol id="maximize-icon" viewBox="0 0 24 24">
    <path fill="currentColor" d="M4 4h16v16H4V4zm2 4v10h12V8H6z"/>
  </symbol>
  
  <!-- Restore Icon (for toggling from maximized state) -->
  <symbol id="restore-icon" viewBox="0 0 24 24">
    <path fill="currentColor" d="M4 8h4V4h12v12h-4v4H4V8zm12 0v8h8V4h-8v4zM8 8v8h8V8H8z"/>
  </symbol>
  
  <!-- Close Icon -->
  <symbol id="close-icon" viewBox="0 0 24 24">
    <path fill="currentColor" d="M19 6.41L17.59 5 12 10.59 6.41 5 5 6.41 10.59 12 5 17.59 6.41 19 12 13.41 17.59 19 19 17.59 13.41 12z"/>
  </symbol>
</svg>
