<svg xmlns="http://www.w3.org/2000/svg" viewBox="0 0 200 200" width="200" height="200">
  <defs>
    <!-- 黄金渐变 -->
    <linearGradient id="gold-grad" x1="0%" y1="0%" x2="100%" y2="100%">
      <stop offset="0%" stop-color="#FFD700" />
      <stop offset="100%" stop-color="#FFA500" />
    </linearGradient>
    
    <!-- 3D效果滤镜 -->
    <filter id="3d-effect" x="-10%" y="-10%" width="120%" height="120%">
      <feGaussianBlur in="SourceAlpha" stdDeviation="2" result="blur"/>
      <feOffset in="blur" dx="3" dy="3" result="offsetBlur"/>
      <feFlood flood-color="#000000" flood-opacity="0.7"/>
      <feComposite in2="offsetBlur" operator="in"/>
      <feMerge>
        <feMergeNode/>
        <feMergeNode in="SourceGraphic"/>
      </feMerge>
    </filter>
    
    <!-- 光晕效果 -->
    <filter id="glow">
      <feGaussianBlur stdDeviation="3.5" result="blur"/>
      <feComposite in="SourceGraphic" in2="blur" operator="over"/>
    </filter>
  </defs>
  
  <!-- 黑色背景 -->
  <rect width="200" height="200" fill="#000" rx="20"/>
  
  <!-- 核心S造型 - 黄金渐变 -->
  <path d="M 65 50 
           C 45 70, 45 100, 65 120 
           C 85 140, 115 140, 135 120 
           C 155 100, 155 70, 135 50 
           C 115 30, 85 30, 65 50 Z" 
        fill="url(#gold-grad)" 
        filter="url(#3d-effect)" 
        stroke="#000" 
        stroke-width="2"/>
  
  <!-- 内部S造型 - 增强立体感 -->
  <path d="M 80 60 
           C 65 75, 65 95, 80 110 
           C 95 125, 105 125, 120 110 
           C 135 95, 135 75, 120 60 
           C 105 45, 95 45, 80 60 Z" 
        fill="url(#gold-grad)" 
        opacity="0.9"/>
  
  <!-- 高光效果 -->
  <path d="M 70 55 L 110 35 L 130 60" 
        fill="#FFF" 
        opacity="0.3" 
        filter="url(#glow)"/>
  
  <!-- 反光效果 -->
  <path d="M 130 145 L 90 165 L 70 140" 
        fill="#FFF" 
        opacity="0.2"/>
</svg>